<svg width="62" height="22" viewBox="0 0 62 22" fill="none" xmlns="http://www.w3.org/2000/svg">
<g clip-path="url(#clip0_6621_6558)">
<path d="M1.55947 16.4015C2.88776 16.2444 3.89528 15.7942 4.58205 15.0426C5.26881 14.291 5.68415 13.2379 5.83631 11.879H1.82678C1.51012 11.879 1.24693 11.828 1.03309 11.7176C0.819251 11.6114 0.642421 11.4713 0.498489 11.3057C0.354557 11.1358 0.251748 10.9447 0.190063 10.7324C0.128378 10.5201 0.0954789 10.3078 0.0954789 10.0954C0.0954789 9.88312 0.128378 9.67079 0.190063 9.45847C0.251748 9.24614 0.350444 9.05505 0.490264 8.88519C0.625971 8.71533 0.806914 8.57944 1.02487 8.47328C1.24282 8.36711 1.51012 8.31191 1.82678 8.31191H5.89799V5.55168C5.89799 5.39456 5.85276 5.26717 5.76229 5.1695C5.67182 5.07183 5.54845 5.02087 5.38395 5.02087H1.97071C1.65406 5.02087 1.39087 4.96991 1.18114 4.8595C0.967296 4.75334 0.790465 4.61321 0.646533 4.44335C0.502601 4.27349 0.399792 4.08239 0.338107 3.87007C0.276422 3.65774 0.243523 3.44542 0.243523 3.23309C0.243523 3.02077 0.27231 2.80844 0.338107 2.59612C0.399792 2.38379 0.498488 2.1927 0.634196 2.02284C0.769903 1.85298 0.950846 1.71709 1.1688 1.61093C1.38675 1.50477 1.65406 1.44956 1.97071 1.44956H6.49428C7.07001 1.44956 7.55527 1.50052 7.95417 1.59819C8.35306 1.69586 8.6656 1.86147 8.90001 2.08654C9.13441 2.3116 9.30301 2.60886 9.40582 2.9783C9.50863 3.34775 9.56209 3.79788 9.56209 4.33718V8.49876H10.8164V2.45174C10.8164 1.85723 10.9932 1.4071 11.3427 1.10559C11.6882 0.799847 12.1035 0.646973 12.5806 0.646973C12.815 0.646973 13.0411 0.685191 13.2591 0.765875C13.477 0.842312 13.6744 0.961214 13.843 1.11833C14.0158 1.27546 14.1515 1.4623 14.2543 1.68312C14.3571 1.90394 14.4105 2.15873 14.4105 2.45598V18.7328C14.4105 19.7605 13.6045 20.5885 12.6135 20.5885C11.6183 20.5885 10.8164 19.7562 10.8164 18.7328V11.9512H9.50041C9.38937 13.3525 9.11796 14.5458 8.67794 15.5267C8.23792 16.5119 7.68686 17.3187 7.02478 17.9472C6.35858 18.5757 5.60191 19.0471 4.75065 19.3613C3.8994 19.6713 3.02347 19.8497 2.11875 19.8921C1.57181 19.9218 1.08244 19.8029 0.65887 19.5397C0.235299 19.2764 0.013232 18.856 0.000894964 18.2742C-0.0114421 17.7774 0.103704 17.3612 0.350444 17.0215C0.597185 16.6818 1.00019 16.4779 1.56359 16.4057L1.55947 16.4015ZM15.3975 2.45174C15.3975 1.85723 15.5826 1.4071 15.9527 1.10559C16.3228 0.799847 16.7505 0.646973 17.2275 0.646973C17.4619 0.646973 17.6881 0.685191 17.906 0.765875C18.124 0.842312 18.3214 0.961214 18.4941 1.11833C18.6668 1.27546 18.8025 1.4623 18.9053 1.68312C19.0081 1.90394 19.0616 2.15873 19.0616 2.45598V18.7328C19.0616 19.7605 18.2556 20.5885 17.2645 20.5885H17.2028C16.2076 20.5885 15.4057 19.7562 15.4057 18.7328V2.45174H15.3975Z" fill="#5E81F6"/>
<path d="M34.7705 11.9427H32.0769V14.4693C32.0769 15.4036 31.9412 16.2274 31.6657 16.9408C31.3901 17.6542 31.0077 18.253 30.5142 18.7371C30.0207 19.2212 29.4244 19.5779 28.7253 19.8199C28.0262 20.062 27.2531 20.1809 26.4019 20.1809C25.5506 20.1809 24.7775 20.062 24.0784 19.8199C23.3793 19.5779 22.7789 19.2169 22.2772 18.7371C21.7755 18.2572 21.3889 17.6585 21.1134 16.9408C20.8379 16.2274 20.7021 15.4036 20.7021 14.4693V6.69824C20.7021 5.76401 20.8379 4.94019 21.1134 4.22677C21.3889 3.51336 21.7755 2.9146 22.2772 2.4305C22.7789 1.95065 23.3752 1.5897 24.0784 1.34765C24.7775 1.10559 25.5506 0.986693 26.4019 0.986693C27.2531 0.986693 28.0262 1.10559 28.7253 1.34765C29.4244 1.5897 30.0207 1.95065 30.5142 2.4305C31.0077 2.91036 31.3901 3.50911 31.6657 4.22677C31.9412 4.94019 32.0769 5.76401 32.0769 6.69824V8.31191H34.7705V2.70653C34.7705 2.02709 34.9761 1.51326 35.3873 1.16929C35.7986 0.821079 36.2715 0.646973 36.8061 0.646973C37.0652 0.646973 37.3201 0.693684 37.5669 0.787107C37.8136 0.88053 38.0316 1.01217 38.2248 1.17779C38.4181 1.34765 38.5703 1.55997 38.6854 1.81476C38.8006 2.06955 38.8581 2.36681 38.8581 2.70653V20.1469C38.8581 20.389 38.669 20.5801 38.4387 20.5801H35.1899C34.9555 20.5801 34.7705 20.3847 34.7705 20.1469V11.9427ZM24.7364 14.5755C24.7364 15.2974 24.8926 15.8325 25.1969 16.1764C25.5054 16.5246 25.9043 16.6987 26.3977 16.6987C26.8912 16.6987 27.2901 16.5246 27.5985 16.1764C27.907 15.8282 28.0591 15.2932 28.0591 14.5755V6.59208C28.0591 5.87017 27.9029 5.33511 27.5985 4.99114C27.2901 4.64293 26.8912 4.46882 26.3977 4.46882C25.9043 4.46882 25.5054 4.64293 25.1969 4.99114C24.8885 5.33936 24.7364 5.87442 24.7364 6.59208V14.5755Z" fill="#5E81F6"/>
<path d="M60.9283 19.0088L60.7103 18.6096C60.258 17.9302 59.6206 17.2974 58.9256 16.86C58.2964 16.4651 57.4534 16.0999 56.6761 15.8111C56.0099 15.5649 54.5007 14.9916 53.6865 14.8514V14.7877C53.6865 14.1508 53.5137 13.6879 53.1642 13.3949C52.8146 13.1061 52.3746 12.9448 51.8359 12.9193C51.3013 12.8896 50.8489 13 50.4788 13.2505C50.1087 13.5011 49.7797 13.9597 49.4919 14.6391C49.2862 15.119 48.9778 15.5309 48.5666 15.8706C48.1554 16.2103 47.6948 16.4863 47.189 16.6987C46.6831 16.911 46.1609 17.0639 45.6263 17.153C45.0917 17.2465 44.59 17.2762 44.1253 17.2507C43.6441 17.221 43.237 17.3441 42.9039 17.6244C42.5667 17.9004 42.3857 18.2996 42.357 18.8262C42.3282 19.3655 42.4803 19.8114 42.8093 20.1638C43.1383 20.5163 43.5495 20.7244 44.043 20.7796C44.6722 20.8517 45.3548 20.8348 46.091 20.7371C46.823 20.6394 47.5591 20.4696 48.3034 20.2275C49.0436 19.9855 49.7509 19.6755 50.4213 19.2933C51.0916 18.9111 51.6632 18.5671 52.169 18.0703C52.7159 17.9981 54.2498 18.4822 54.5788 18.6478C55.0929 18.8559 55.6522 19.1531 56.0634 19.3867C56.4746 19.6203 56.8447 19.8835 57.1326 20.2402C57.1655 20.2785 57.1943 20.3167 57.2231 20.3549C57.7371 21.0471 58.4691 21.3528 59.3121 21.3528H59.5383C60.6692 21.3528 61.4423 20.0577 60.9283 19.013V19.0088Z" fill="#5E81F6"/>
<path d="M50.8782 5.50072C50.6643 5.83195 50.5615 6.22688 50.5615 6.677C50.5615 7.12713 50.6767 7.52206 50.9111 7.85753C51.1455 8.18876 51.5156 8.35437 52.0214 8.35437H52.4738V12.4735H55.9898V2.45174C55.9898 1.85723 55.8171 1.4071 55.4675 1.10559C55.118 0.799847 54.7109 0.646973 54.2421 0.646973C53.7733 0.646973 53.3497 0.799847 53.0001 1.10559C52.6506 1.41134 52.4779 1.86147 52.4779 2.45174V4.99964H52.0255C51.4786 4.99964 51.0961 5.16525 50.8864 5.50072H50.8782Z" fill="#5E81F6"/>
<path d="M60.3854 2.45174C60.3854 1.85723 60.2044 1.4071 59.8384 1.10559C59.4765 0.799847 59.0612 0.646973 58.5965 0.646973C58.1318 0.646973 57.7 0.799847 57.3422 1.10559C56.9844 1.41134 56.8076 1.86147 56.8076 2.45174V13.2166H60.3854V2.45174Z" fill="#5E81F6"/>
<path d="M50.1873 12.2188C50.6684 12.2188 51.0303 12.0574 51.2771 11.7432C51.5238 11.4247 51.6472 11.0765 51.6472 10.6943C51.6472 10.3121 51.5361 9.96814 51.3058 9.66664C51.0797 9.36089 50.7054 9.20802 50.1832 9.20802H50.142V4.2566C50.4299 4.1929 50.6684 4.05276 50.8411 3.83619C51.0879 3.5262 51.2113 3.16525 51.2113 2.75333C51.2113 2.34142 51.1002 1.97622 50.874 1.65774C50.6479 1.33925 50.2736 1.18213 49.7514 1.18213H43.0688C42.5465 1.18213 42.1764 1.3435 41.9461 1.65774C41.72 1.97622 41.6089 2.34142 41.6089 2.75333C41.6089 3.16525 41.7323 3.5262 41.979 3.83619C42.1682 4.07824 42.4314 4.22262 42.7604 4.27783V9.20802C42.2669 9.23774 41.9174 9.39911 41.7117 9.69637C41.5061 9.99362 41.4033 10.3248 41.4033 10.6943C41.4033 11.0637 41.5267 11.4247 41.7734 11.7432C42.0202 12.0617 42.3821 12.2188 42.8632 12.2188H50.1832H50.1873ZM46.4574 9.20377C46.223 9.20377 46.0379 9.00843 46.0379 8.77063V4.30331H46.881V8.77063C46.881 9.01268 46.6918 9.20377 46.4615 9.20377H46.4574Z" fill="#5E81F6"/>
</g>
<defs>
<clipPath id="clip0_6621_6558">
<rect width="62" height="22" fill="white"/>
</clipPath>
</defs>
</svg>
